<svg xmlns="http://www.w3.org/2000/svg" viewBox="0 0 1176.26 1176.26"><defs><style>.cls-1{fill:#fff;}</style></defs><title>bitcoin-studio-white-border</title><g id="Layer_2" data-name="Layer 2"><g id="Layer_1-2" data-name="Layer 1"><path class="cls-1" d="M0,0V1176.26H1176.26V0ZM1136.38,1136.39H39.87V39.87H1136.38Z"/><rect class="cls-1" x="434.58" y="422.94" width="38.43" height="146.4" transform="matrix(0.99, -0.12, 0.12, 0.99, -56.24, 58.02)"/><path class="cls-1" d="M427,402.2q6.27,5.11,15.81,4t14.41-7.6A20.2,20.2,0,0,0,461,383.37q-1.07-8.87-7.39-13.83t-15.73-3.82q-9.41,1.14-14.36,7.46t-3.89,15.19A20.2,20.2,0,0,0,427,402.2Z"/><path class="cls-1" d="M494.59,446.37l16.79-2,9.34,77.33q5.51,42.18,42.31,37.73a59.65,59.65,0,0,0,20.52-6.16l-3.3-29.59a35.7,35.7,0,0,1-8.89,2q-6.72.81-9.46-2.13T558.13,512l-8.73-72.25,19.48-2.35-3.44-28.48L546,411.27l-4.32-35.73-38,4.59,4.32,35.73-16.79,2Z"/><path class="cls-1" d="M599.51,485.07q4.38,34,21.26,49.63t45,12.28q22.7-2.74,35.31-19.12t10-40.19L675.3,492q2.33,21.53-14.2,23.52-7.39.89-11.82-1.91t-7-9.65q-2.6-6.84-4.74-24.57l-1.79-14.77q-2.18-20.32,1.27-27.89T650.39,428q9-1.09,13.69,5t6.3,18.32L706.12,447q-3.57-27.24-19.19-40.41T647.25,396.3q-28.48,3.44-40.88,23.2t-8.26,54Z"/><path class="cls-1" d="M734.2,466.89q4,33.32,21.81,50.18t45.72,13.49q27.81-3.36,41-23.9t9.18-53.72l-1.12-9.27q-4-33.31-21.88-50.24t-45.66-13.56q-27.54,3.33-40.85,24t-9.32,53.74Zm38.91-44q4.28-10.26,14-11.43,10.08-1.22,16.74,7.72T812.88,448l1.8,16q2.45,32.69-16.76,35-20.82,2.52-25.53-36.44L771.24,453Q768.83,433.13,773.11,422.87Z"/><rect class="cls-1" x="884.83" y="368.53" width="38.43" height="146.4" transform="matrix(0.99, -0.12, 0.12, 0.99, -46.46, 111.64)"/><path class="cls-1" d="M877.23,347.8q6.27,5.11,15.81,4t14.42-7.6A20.21,20.21,0,0,0,911.27,329q-1.07-8.87-7.39-13.83t-15.73-3.82q-9.41,1.14-14.36,7.46T869.9,334A20.19,20.19,0,0,0,877.23,347.8Z"/><path class="cls-1" d="M1006.78,503.05,994,397.47q4.49-11.31,14.84-12.56,9.27-1.12,13.64,4t5.86,17.49l11.2,92.69,38.15-4.61L1066.17,399q-7.42-52.39-44.9-47.86-20.82,2.52-31.65,21.13L986.8,358l-35.74,4.32,17.56,145.35Z"/><path class="cls-1" d="M116.2,759.67q14.71,13.42,45.47,21,16.92,4.63,23.77,10t8.3,17.33q2.65,21.89-18,24.4-14.91,1.8-22.42-5.06t-9.55-23.79l-39.63,4.79q2.39,19.75,12.94,33.19A58.83,58.83,0,0,0,144.1,860.9a76.68,76.68,0,0,0,35.46,3.62q27.94-3.38,42.46-19.71t11.43-41.86q-2.81-23.24-17.59-36.72t-44.64-20.36q-17.23-5-24.47-10.74t-8.21-13.8q-1.25-10.34,3.79-17.15t15.38-8.06q11-1.33,17.73,5.15t8.37,20.18l39.36-4.76q-2.13-17.6-11.39-30.52a53,53,0,0,0-24.28-18.8q-15-5.88-33-3.71-27,3.26-42.72,20.36T99,725.83Q101.49,746.25,116.2,759.67Z"/><path class="cls-1" d="M396,784.67l-11.49-95.11-38,4.59,11.38,94.17q3.18,26.33,15.19,38.85t32,10.1q19.88-2.4,29.77-19.82l2.68,13.17,35.73-4.32L455.72,681l-38.28,4.63,12.69,105q-4.41,12-17.44,13.56Q398.84,805.86,396,784.67Z"/><path class="cls-1" d="M562.65,680Q549.75,666.87,533,668.9q-23.1,2.79-33.07,21.85t-5.65,54.79l1.33,11q4.36,33.82,18.49,49.83t37,13.25q18.4-2.22,28-21.1l3.53,14.57,34.52-4.17L592.14,602.6l-38.28,4.63ZM566,708.11l8,66.36q-4.56,10.77-15.84,12.14-10.88,1.31-16.48-6.66t-8.2-29.47l-1.22-10.07q-2.61-21.63,1.2-30.68t14.29-10.31Q559.1,698,566,708.11Z"/><path class="cls-1" d="M654.3,639.38q9.54-1.15,14.41-7.6a20.2,20.2,0,0,0,3.82-15.18q-1.07-8.87-7.39-13.83t-15.73-3.82Q640,600.08,635,606.41t-3.89,15.19a20.19,20.19,0,0,0,7.33,13.83Q644.75,640.54,654.3,639.38Z"/><rect class="cls-1" x="646.09" y="656.16" width="38.43" height="146.4" transform="translate(-82.69 85.08) rotate(-6.89)"/><path class="cls-1" d="M718.17,727.61q4,33.32,21.81,50.18t45.72,13.49q27.81-3.36,41-23.9t9.18-53.72l-1.12-9.27q-4-33.31-21.88-50.24t-45.66-13.56q-27.54,3.33-40.85,24t-9.32,53.73Zm38.91-44q4.28-10.26,14-11.43,10.08-1.22,16.74,7.72t9.07,28.82l1.8,16q2.45,32.69-16.76,35-20.82,2.52-25.53-36.44l-1.15-9.54Q752.8,693.85,757.08,683.59Z"/><path class="cls-1" d="M201.48,427q13.31-1.61,17,10l6.07,50.25a18,18,0,0,1,2.82-.16l-2.8.34,8.5,70.38q-.32,9.1-9.08,10.16l-19.43,2.35L203,603l35-4.23q3.33-.4,9.64-1.08c4.21-.45-.87.19,1.23-.06l12.9,106.72-.94.11-16.79,2L247.53,735l16.79-2,9.34,77.33Q279.17,852.49,316,848a59.66,59.66,0,0,0,20.52-6.16l-3.3-29.59a35.7,35.7,0,0,1-8.89,2q-6.72.81-9.46-2.13t-3.78-11.56l-8.73-72.25L321.81,726l-3.44-28.48-19.48,2.35-1.88.23L284.18,593.94q7.37-.71,21.38-2.4l5.31,43.94,27-3.26-5.4-44.65a211.19,211.19,0,0,0,25.16-5.7,104.44,104.44,0,0,0,20.54-8.61A57.82,57.82,0,0,0,393.88,561,48.68,48.68,0,0,0,403.3,544a66.73,66.73,0,0,0,3-22.58q-.65-24.61-12.4-36.52T361.12,470.6q24.48-16.46,17.48-47.95a45,45,0,0,0-8.81-19.27,40.4,40.4,0,0,0-16.1-11.91A80.1,80.1,0,0,0,332.95,386a157.22,157.22,0,0,0-25-1l-5.33-44.12-27,3.26,5.18,42.9q-7,.85-21.32,2.93l-5.23-43.25-27,3.26,5.33,44.12q-5.76.87-17,2.23l-37.14,4.31L182,429.36Zm139.57,77.45a26.47,26.47,0,0,1,7.45,7.27,25.19,25.19,0,0,1,3.4,20,25.07,25.07,0,0,1-3.44,7.53,24.49,24.49,0,0,1-6.28,6.08A59.79,59.79,0,0,1,334.3,550a67.41,67.41,0,0,1-9.42,3.63q-5.57,1.74-9.81,2.69t-10.16,1.94q-5.92,1-9.25,1.38t-8.42.93q-5.09.53-6.49.7l-7.15-59.18q1.4-.17,8.3-1.18t11.27-1.54q4.38-.53,12.15-.94a104,104,0,0,1,13.15,0,85.8,85.8,0,0,1,11.86,1.85A33.49,33.49,0,0,1,341.05,504.46ZM280.2,419.18q3.75-.54,10.21-.79a97.35,97.35,0,0,1,10.94.1,60.37,60.37,0,0,1,10,1.73,26.29,26.29,0,0,1,9,3.89,24.49,24.49,0,0,1,6.23,6.71,23.12,23.12,0,0,1,3.43,10,24.53,24.53,0,0,1-.49,9.12,17,17,0,0,1-3.91,7.31,48.21,48.21,0,0,1-5.91,5.51,29.89,29.89,0,0,1-8.1,4.26q-5,1.85-8.78,3a74.3,74.3,0,0,1-9.51,2.13q-5.75,1-8.71,1.41t-8.14,1l-6.05.64-6.49-53.75q1.23-.15,6.9-.92T280.2,419.18Z"/></g></g></svg>