<svg xmlns="http://www.w3.org/2000/svg" viewBox="0 0 1176.26 1176.26"><defs><style>.cls-1{fill:#fff;}</style></defs><title>bitcoin-studio-white</title><g id="Layer_2" data-name="Layer 2"><g id="Layer_1-2" data-name="Layer 1"><path class="cls-1" d="M547.82,699.4q-10.48,1.27-14.29,10.31t-1.2,30.68l1.22,10.07q2.6,21.49,8.2,29.47t16.48,6.66q11.28-1.36,15.84-12.14l-8-66.36Q559.1,698,547.82,699.4Z"/><path class="cls-1" d="M812.88,448q-2.4-19.88-9.07-28.82t-16.74-7.72q-9.67,1.17-14,11.43T771.24,453l1.15,9.54q4.71,39,25.53,36.44,19.21-2.32,16.76-35Z"/><path class="cls-1" d="M796.84,708.7q-2.4-19.88-9.07-28.82T771,672.16q-9.67,1.17-14,11.43t-1.88,30.14l1.15,9.54q4.71,39,25.53,36.44,19.21-2.32,16.76-35Z"/><path class="cls-1" d="M270.36,475.17l6.05-.64q5.18-.54,8.14-1t8.71-1.41a74.31,74.31,0,0,0,9.51-2.13q3.77-1.16,8.78-3a29.89,29.89,0,0,0,8.1-4.26,48.19,48.19,0,0,0,5.91-5.51,17,17,0,0,0,3.91-7.31,24.53,24.53,0,0,0,.49-9.12,23.12,23.12,0,0,0-3.43-10,24.49,24.49,0,0,0-6.23-6.71,26.28,26.28,0,0,0-9-3.89,60.37,60.37,0,0,0-10-1.73,97.35,97.35,0,0,0-10.94-.1q-6.46.25-10.21.79t-9.43,1.32q-5.68.78-6.9.92Z"/><path class="cls-1" d="M305.33,498.48q-7.77.4-12.15.94T281.91,501q-6.9,1-8.3,1.18l7.15,59.18q1.4-.17,6.49-.7t8.42-.93q3.33-.4,9.25-1.38t10.16-1.94q4.24-1,9.81-2.69A67.41,67.41,0,0,0,334.3,550a59.8,59.8,0,0,0,7.87-4.68,24.49,24.49,0,0,0,6.28-6.08,25.07,25.07,0,0,0,3.44-7.53,25.19,25.19,0,0,0-3.4-20,26.47,26.47,0,0,0-7.45-7.27,33.49,33.49,0,0,0-10.71-4.12,85.79,85.79,0,0,0-11.86-1.85A104,104,0,0,0,305.33,498.48Z"/><path class="cls-1" d="M0,0V1176.26H1176.26V0ZM423.54,373.18q5-6.32,14.36-7.46t15.73,3.82q6.32,5,7.39,13.83a20.2,20.2,0,0,1-3.82,15.18q-4.88,6.45-14.41,7.6t-15.81-4a20.19,20.19,0,0,1-7.33-13.83Q418.58,379.5,423.54,373.18ZM222,844.81q-14.52,16.34-42.46,19.71a76.68,76.68,0,0,1-35.46-3.62A58.83,58.83,0,0,1,117,841.55q-10.55-13.44-12.94-33.19l39.63-4.79q2,16.93,9.55,23.79t22.42,5.06q20.68-2.5,18-24.4-1.44-12-8.29-17.33t-23.77-10q-30.77-7.6-45.47-21T99,725.83Q96,701.12,111.76,684t42.72-20.36q18-2.17,33,3.71a53,53,0,0,1,24.28,18.8q9.26,12.92,11.39,30.52l-39.36,4.76q-1.66-13.7-8.37-20.18t-17.73-5.15q-10.34,1.25-15.38,8.06t-3.79,17.15q1,8.06,8.21,13.8t24.47,10.74q29.86,6.89,44.64,20.36t17.59,36.72Q236.54,828.47,222,844.81Zm76.87-144.9,19.48-2.35L321.81,726l-19.48,2.35,8.73,72.25q1,8.61,3.78,11.56t9.46,2.13a35.7,35.7,0,0,0,8.89-2l3.3,29.59A59.65,59.65,0,0,1,316,848q-36.8,4.45-42.31-37.73L264.32,733l-16.79,2-3.44-28.48,16.79-2,.94-.11-12.9-106.72c-2.1.25,3-.39-1.23.06s-7.42.81-9.64,1.08L203,603l1.56-32.7L224,568q8.76-1.06,9.07-10.16l-8.5-70.38,2.8-.34a18,18,0,0,0-2.82.16L218.5,437q-3.71-11.63-17-10L182,429.36l-3.47-28.71,37.14-4.31q11.2-1.35,17-2.23L227.34,350l27-3.26L259.53,390q14.31-2.09,21.32-2.93l-5.18-42.9,27-3.26L308,385a157.28,157.28,0,0,1,25,1,80.1,80.1,0,0,1,20.74,5.49,40.4,40.4,0,0,1,16.1,11.91,45,45,0,0,1,8.81,19.27q7,31.49-17.48,47.95,21.08,2.43,32.82,14.33t12.4,36.52a66.73,66.73,0,0,1-3,22.58A48.69,48.69,0,0,1,393.88,561a57.82,57.82,0,0,1-15.74,12.29,104.44,104.44,0,0,1-20.54,8.61,211.09,211.09,0,0,1-25.16,5.7l5.4,44.65-27,3.26-5.31-43.94q-14,1.69-21.38,2.4L297,700.13ZM437.55,830.62l-2.68-13.17Q425,834.87,405.1,837.27t-32-10.1q-12-12.52-15.19-38.85l-11.38-94.17,38-4.59L396,784.67q2.83,21.19,16.67,19.52,13-1.57,17.44-13.56l-12.69-105L455.72,681,473.28,826.3Zm6-259.51L425.94,425.77l38.15-4.61,17.56,145.35Zm60.12-191,38-4.59L546,411.27l19.48-2.35,3.44,28.48-19.48,2.35L558.13,512q1,8.61,3.78,11.56t9.46,2.13a35.7,35.7,0,0,0,8.89-2l3.3,29.59A59.65,59.65,0,0,1,563,559.4q-36.8,4.45-42.31-37.73l-9.34-77.33-16.79,2-3.44-28.48,16.79-2Zm78.92,433L579,798.53q-9.58,18.88-28,21.1-22.84,2.76-37-13.25t-18.49-49.83l-1.33-11q-4.32-35.73,5.65-54.79T533,668.9q16.79-2,29.69,11.13l-8.8-72.81,38.28-4.63,24.93,206.33Zm48.61-191.5q-1.07-8.87,3.89-15.19t14.36-7.46q9.4-1.14,15.73,3.82t7.39,13.83a20.2,20.2,0,0,1-3.82,15.18q-4.88,6.45-14.41,7.6t-15.81-4A20.19,20.19,0,0,1,631.16,621.6ZM655,804.34,637.45,659l38.15-4.61,17.56,145.35Zm46-276.48Q688.43,544.25,665.73,547q-28.08,3.39-45-12.28t-21.26-49.63l-1.4-11.55q-4.14-34.25,8.26-54t40.88-23.2q24-2.91,39.68,10.26T706.12,447l-35.73,4.32q-1.61-12.2-6.3-18.32t-13.69-5q-9.94,1.2-13.39,8.77t-1.27,27.89l1.79,14.78q2.14,17.73,4.74,24.57t7,9.65q4.43,2.81,11.82,1.91,16.52-2,14.2-23.52L711,487.68Q713.64,511.49,701,527.87ZM826.7,767.38q-13.19,20.54-41,23.9T740,777.79q-17.78-16.87-21.81-50.18l-1.12-9.27q-4-33,9.32-53.74t40.85-24q27.81-3.36,45.66,13.56t21.88,50.24l1.12,9.27Q839.89,746.84,826.7,767.38Zm16-260.72q-13.19,20.54-41,23.9T756,517.07q-17.78-16.87-21.81-50.18l-1.12-9.27q-4-33,9.32-53.73t40.85-24q27.81-3.36,45.66,13.56t21.88,50.24l1.12,9.27Q855.92,486.12,842.73,506.66ZM869.9,334q-1.07-8.87,3.89-15.19t14.36-7.46q9.4-1.14,15.73,3.82T911.27,329a20.21,20.21,0,0,1-3.82,15.18q-4.88,6.45-14.42,7.6t-15.81-4A20.19,20.19,0,0,1,869.9,334Zm23.85,182.75L876.19,371.36l38.15-4.61L931.9,512.1Zm145.81-17.62-11.2-92.69q-1.49-12.36-5.86-17.49t-13.64-4q-10.34,1.25-14.84,12.56l12.76,105.58-38.15,4.61L951.07,362.32,986.8,358l2.81,14.24q10.83-18.62,31.65-21.13,37.48-4.53,44.9,47.86l11.54,95.51Z"/></g></g></svg>